<svg xmlns="http://www.w3.org/2000/svg" width="512" height="512" viewBox="0 0 512 512" version="1.1" role="img" aria-label="Balsm">
<rect x="0" y="0" width="512" height="512" fill="#FFFFFF" />
<g transform="translate(69.6407,80.1107) scale(0.497622)" aria-label="Balsm">
<title>Balsm</title>
<!-- Balsm mark, five-fold symmetric. Source: Balsm-Draft assets/circle/27-vector.svg
     (traced from assets/circle/4.png; pipeline and notes in assets/circle/4-svg/27-pipeline).

     ONE RIBBON, ONE HEAD, FIVE TIMES. #ribbon is a single closed path and #head a single
     circle; every ribbon is a <use> of them turned by rotate(72k 374.5 383). The seam
     where two ribbons meet is the same curve in both copies (exact to 0.001), so the ring
     reads as one band.

     FRAME. The viewBox IS the ink box (21.64 15 705.72 x 676.92, aspect 1.0425),
     rounded outward to 0.01: no padding on any side, the heads set all four edges.
     scripts/brand/build-brand-assets.py hard-codes it as MARK_INK: update it if the geometry
     changes. Square frames centre the ink box. A head-up five-fold mark is always wider than
     tall, so in a square each vertical margin is 14.4 units (scaled) larger than
     each horizontal one; only turning the mark 9.00 degrees makes all four equal. The
     rotation centre sits 29.5 units below the ink box centre; the enclosing circle about
     it has radius 367.995. Under a circular mask the lower heads stay whole only while the mark
     width is at most 0.899 of the frame, so pad circular exports.

     JOINS. Where two ribbons abut, the union outline crosses from one copy to the next at
     two points, and both are curvature-continuous (G1 and G2, to 1e-5) so the ring reads as
     one unbroken band rather than five pieces butted together:
       outer join, at (257.162 128.139) = rotate(72) of (580.628 192.649)
         governed by the last control point of the closing curve and the first of the curve
         that leaves (580.628 192.649).
       inner join, at (240.141 220.338) = rotate(72) of (487.682 204.952)
         governed by the first control point of the curve leaving (240.141 220.338) and the
         last of the curve arriving at (487.682 204.952). This pair used to meet at a 66.2
         degree corner, which spiked the inner negative space; the handles now share one
         tangent and one curvature, giving a fillet of radius about 12.5.
     Only those four control points set the joins. Endpoints, the seam curve and the ink box
     are untouched by them, so a regeneration that moves them must re-solve both joins.

     SEAMS. Two abutting antialiased fills leave about a quarter of the background showing
     down their shared edge. #seam is a closed sliver 1.6 wide along that shared curve
     (the ribbon's head seam) trimmed one unit short of each corner; it is FILLED with each
     ribbon's own gradient UNDER the fills, so the seams close but the outline is still drawn
     once and stays a single soft edge. Nothing is stroked and nothing is clipped: a stroke
     would vanish under the mono fill regex, and a clip-path hardens the outline in rsvg.
     Do not stroke #ribbon itself: that pushes the outline out and draws it twice.

     COLOUR is the brand hue palette (design-system/colors_and_type.css), clockwise from the top in
     the order of the previous icon.svg: aqua, blue, emerald, violet, mint. The five
     gradient-<hue> fills inherit one #ribbon-axis (userSpaceOnUse, unrotated frame; the
     rotate lives on each <use>, so the paint turns with its ribbon) and share one OKLab
     lightness profile: deep at
     the leading seam, light at the trailing seam, clockwise, the same depth on every ribbon,
     smoothed (largest slope jump 0.12). The profile's zero is the base token, present as an
     exact stop at offset 0.435; hues follow each hue's 600 -> base -> light ramp. The
     head-<hue> fills are the previous icon's dot colours with one shared lightness step, on
     the previous icon's head axis (#head-axis: top edge to bottom edge, light end 21.8
     degrees counter-clockwise from outward). Regenerate with the pipeline (polish.py,
     brandmaster.py) rather than hand-editing hexes. -->
<defs>
<path id="sw-ribbon" d="M257.162 128.139C254.157 130.243 251.488 132.406 249.088 134.650C246.688 136.894 244.556 139.220 242.626 141.651C240.695 144.082 238.964 146.618 237.367 149.282C235.389 152.581 232.823 157.397 231.623 161.011C230.413 164.694 230.078 167.572 229.607 171.350C229.241 174.338 228.875 177.356 228.828 180.366C228.783 183.256 229.208 186.028 229.522 188.890C230.047 193.583 230.712 198.166 232.027 202.724C233.156 206.610 235.158 213.561 237.240 216.872C238.043 218.136 239.147 219.223 240.141 220.338C244.653 206.066 271.892 209.180 287.050 213.373C300.470 217.096 312.460 224.481 324.756 230.808C337.680 237.458 351.179 243.121 365.484 246.059C394.382 251.996 424.070 245.067 449.488 230.795C463.109 223.139 475.443 205.049 487.682 204.952C488.435 203.662 489.127 202.276 490.081 201.122C492.587 198.118 498.579 194.066 501.926 191.792C505.855 189.133 510.008 187.084 514.309 185.134C516.934 183.951 519.439 182.691 522.201 181.840C525.078 180.955 528.062 180.370 531.017 179.795C534.755 179.076 537.596 178.505 541.473 178.518C545.281 178.542 550.654 179.494 554.403 180.356C557.430 181.052 560.377 181.914 563.285 182.999C566.194 184.084 569.064 185.393 571.940 186.982C574.816 188.571 577.698 190.441 580.628 192.649C561.647 161.481 529.688 137.109 493.532 128.783C479.520 125.567 464.883 124.887 450.776 127.980C434.356 131.571 421.268 140.460 406.004 146.658C395.451 150.950 384.177 153.329 372.750 152.747C359.914 152.087 347.877 147.802 336.387 142.279C327.659 138.072 319.135 133.396 309.972 130.166C292.146 123.879 275.564 123.775 257.162 128.139Z"/>
<path id="sw-seam" d="M255.88 128.07L255.20 128.54L254.51 128.98L253.81 129.41L253.11 129.82L252.40 130.22L251.69 130.61L250.98 130.99L250.27 131.38L249.57 131.77L248.88 132.16L248.19 132.56L247.51 132.97L246.79 133.43L246.08 133.91L245.39 134.41L244.73 134.94L244.09 135.49L243.49 136.06L242.92 136.66L242.37 137.28L241.83 137.90L241.30 138.52L240.79 139.15L240.28 139.79L239.78 140.42L239.28 141.07L238.80 141.71L238.33 142.36L237.86 143.02L237.40 143.68L236.95 144.34L236.50 145.01L236.07 145.69L235.64 146.37L235.21 147.05L234.79 147.74L234.27 148.62L233.73 149.56L233.18 150.55L232.62 151.57L232.07 152.62L231.52 153.68L230.99 154.76L230.48 155.84L230 156.92L229.55 157.99L229.14 159.04L228.78 160.06L228.47 161.05L228.19 162L227.95 162.93L227.74 163.84L227.55 164.73L227.38 165.62L227.24 166.50L227.10 167.37L226.98 168.25L226.86 169.14L226.75 170.05L226.63 170.98L226.54 171.74L226.45 172.49L226.36 173.25L226.27 174.02L226.19 174.79L226.11 175.57L226.04 176.35L225.98 177.13L225.92 177.92L225.88 178.72L225.85 179.52L225.83 180.33L225.83 181.12L225.84 181.90L225.88 182.68L225.93 183.44L225.99 184.19L226.05 184.93L226.13 185.67L226.21 186.39L226.30 187.11L226.38 187.82L226.46 188.52L226.54 189.23L226.68 190.41L226.82 191.60L226.98 192.79L227.14 193.98L227.33 195.17L227.52 196.37L227.74 197.56L227.97 198.76L228.23 199.95L228.51 201.15L228.81 202.35L229.14 203.54L229.45 204.60L229.78 205.74L230.15 206.98L230.59 208.27L231.15 209.57L231.80 210.86L232.52 212.13L233.29 213.35L234.07 214.51L234.84 215.59L235.59 216.58L236.29 217.44L236.52 217.71L236.74 217.95L236.96 218.18L237.17 218.41L237.39 218.63L237.61 218.85L237.83 219.07L238.05 219.28L238.26 219.49L238.47 219.71L238.68 219.92L238.88 220.14L240.06 219.06L239.86 218.84L239.67 218.62L239.48 218.40L239.30 218.17L239.13 217.94L238.97 217.71L238.81 217.48L238.66 217.24L238.52 217L238.40 216.76L238.28 216.52L238.19 216.31L237.86 215.37L237.58 214.30L237.34 213.12L237.14 211.85L236.95 210.52L236.75 209.17L236.52 207.82L236.24 206.50L235.90 205.24L235.54 204.04L235.21 202.91L234.91 201.91L234.61 200.81L234.34 199.73L234.08 198.64L233.85 197.55L233.63 196.45L233.43 195.35L233.25 194.24L233.08 193.12L232.92 191.99L232.77 190.85L232.64 189.71L232.50 188.55L232.42 187.83L232.34 187.12L232.25 186.41L232.17 185.71L232.10 185.02L232.03 184.34L231.96 183.67L231.91 183.01L231.87 182.35L231.84 181.70L231.83 181.06L231.83 180.41L231.84 179.71L231.87 179L231.91 178.29L231.96 177.58L232.02 176.86L232.08 176.13L232.16 175.41L232.23 174.67L232.32 173.94L232.40 173.20L232.49 172.46L232.58 171.72L232.70 170.80L232.81 169.91L232.92 169.06L233.04 168.24L233.16 167.45L233.29 166.67L233.44 165.90L233.60 165.14L233.78 164.37L233.98 163.59L234.21 162.78L234.47 161.96L234.76 161.13L235.11 160.24L235.50 159.31L235.93 158.35L236.40 157.37L236.88 156.37L237.39 155.38L237.91 154.40L238.43 153.45L238.95 152.53L239.45 151.65L239.94 150.82L240.33 150.19L240.72 149.55L241.12 148.93L241.52 148.31L241.93 147.69L242.34 147.08L242.76 146.47L243.19 145.87L243.63 145.28L244.07 144.69L244.52 144.10L244.98 143.52L245.44 142.94L245.91 142.37L246.39 141.80L246.88 141.23L247.38 140.67L247.87 140.10L248.35 139.51L248.82 138.91L249.29 138.28L249.74 137.65L250.20 136.99L250.66 136.33L251.09 135.73L251.52 135.11L251.96 134.50L252.42 133.89L252.89 133.28L253.38 132.67L253.88 132.08L254.42 131.49L254.97 130.93L255.55 130.38L256.17 129.86L256.82 129.36Z"/>
<circle id="sw-head" cx="374.5" cy="73.655" r="58.65"/>
<linearGradient id="sw-ribbon-axis" gradientUnits="userSpaceOnUse" x1="236.232" y1="170.556" x2="557.445" y2="187.401"/>
<linearGradient id="sw-gradient-aqua" href="#sw-ribbon-axis"><stop offset="0" stop-color="#018985"/><stop offset="0.062" stop-color="#03938F"/><stop offset="0.125" stop-color="#049E99"/><stop offset="0.188" stop-color="#04A7A2"/><stop offset="0.25" stop-color="#04ADA8"/><stop offset="0.312" stop-color="#05B2AD"/><stop offset="0.375" stop-color="#03B7B1"/><stop offset="0.435" stop-color="#02BBB5"/><stop offset="0.5" stop-color="#02C0B9"/><stop offset="0.562" stop-color="#04C4BE"/><stop offset="0.625" stop-color="#04C8C1"/><stop offset="0.688" stop-color="#02CCC5"/><stop offset="0.75" stop-color="#01CFC8"/><stop offset="0.812" stop-color="#03D3CC"/><stop offset="0.875" stop-color="#03D5CE"/><stop offset="0.938" stop-color="#06D6CF"/><stop offset="1" stop-color="#02D4CD"/></linearGradient>
<linearGradient id="sw-gradient-blue" href="#sw-ribbon-axis"><stop offset="0" stop-color="#005AB3"/><stop offset="0.062" stop-color="#0563C1"/><stop offset="0.125" stop-color="#0B6CD0"/><stop offset="0.188" stop-color="#1073DD"/><stop offset="0.25" stop-color="#1278E8"/><stop offset="0.312" stop-color="#127CF0"/><stop offset="0.375" stop-color="#1280F8"/><stop offset="0.435" stop-color="#1283FF"/><stop offset="0.5" stop-color="#1F88FF"/><stop offset="0.562" stop-color="#298DFF"/><stop offset="0.625" stop-color="#3191FF"/><stop offset="0.688" stop-color="#3996FF"/><stop offset="0.75" stop-color="#3F9AFF"/><stop offset="0.812" stop-color="#459DFF"/><stop offset="0.875" stop-color="#4AA0FF"/><stop offset="0.938" stop-color="#4AA0FF"/><stop offset="1" stop-color="#479EFF"/></linearGradient>
<linearGradient id="sw-gradient-emerald" href="#sw-ribbon-axis"><stop offset="0" stop-color="#009178"/><stop offset="0.062" stop-color="#029B80"/><stop offset="0.125" stop-color="#01A689"/><stop offset="0.188" stop-color="#01AF91"/><stop offset="0.25" stop-color="#02B696"/><stop offset="0.312" stop-color="#03BB9B"/><stop offset="0.375" stop-color="#01C09F"/><stop offset="0.435" stop-color="#01C4A2"/><stop offset="0.5" stop-color="#01C9A6"/><stop offset="0.562" stop-color="#03CDAA"/><stop offset="0.625" stop-color="#04D1AD"/><stop offset="0.688" stop-color="#02D5B0"/><stop offset="0.75" stop-color="#02D9B3"/><stop offset="0.812" stop-color="#04DCB6"/><stop offset="0.875" stop-color="#05DFB9"/><stop offset="0.938" stop-color="#07DFB9"/><stop offset="1" stop-color="#03DDB7"/></linearGradient>
<linearGradient id="sw-gradient-violet" href="#sw-ribbon-axis"><stop offset="0" stop-color="#4A2299"/><stop offset="0.062" stop-color="#512CA2"/><stop offset="0.125" stop-color="#5A37AD"/><stop offset="0.188" stop-color="#613EB7"/><stop offset="0.25" stop-color="#6643BF"/><stop offset="0.312" stop-color="#6B47C5"/><stop offset="0.375" stop-color="#6E4ACB"/><stop offset="0.435" stop-color="#724DD0"/><stop offset="0.5" stop-color="#7652D2"/><stop offset="0.562" stop-color="#7957D3"/><stop offset="0.625" stop-color="#7C5CD5"/><stop offset="0.688" stop-color="#8060D5"/><stop offset="0.75" stop-color="#8464D6"/><stop offset="0.812" stop-color="#8668D8"/><stop offset="0.875" stop-color="#886AD8"/><stop offset="0.938" stop-color="#896BD9"/><stop offset="1" stop-color="#8769D8"/></linearGradient>
<linearGradient id="sw-gradient-mint" href="#sw-ribbon-axis"><stop offset="0" stop-color="#12A84C"/><stop offset="0.062" stop-color="#26B155"/><stop offset="0.125" stop-color="#35BB5F"/><stop offset="0.188" stop-color="#40C468"/><stop offset="0.25" stop-color="#47CA6F"/><stop offset="0.312" stop-color="#4CCF75"/><stop offset="0.375" stop-color="#51D37B"/><stop offset="0.435" stop-color="#55D77F"/><stop offset="0.5" stop-color="#62DA88"/><stop offset="0.562" stop-color="#6CDC90"/><stop offset="0.625" stop-color="#74DF97"/><stop offset="0.688" stop-color="#7AE29B"/><stop offset="0.75" stop-color="#7EE6A0"/><stop offset="0.812" stop-color="#81E9A2"/><stop offset="0.875" stop-color="#83EBA4"/><stop offset="0.938" stop-color="#84ECA5"/><stop offset="1" stop-color="#82EAA3"/></linearGradient>
<linearGradient id="sw-head-axis" gradientUnits="userSpaceOnUse" x1="351.006" y1="15.035" x2="397.934" y2="132.355"/>
<linearGradient id="sw-head-aqua" href="#sw-head-axis"><stop offset="0" stop-color="#00CFC9"/><stop offset="1" stop-color="#19B0AB"/></linearGradient>
<linearGradient id="sw-head-blue" href="#sw-head-axis"><stop offset="0" stop-color="#3D98FF"/><stop offset="1" stop-color="#0076F6"/></linearGradient>
<linearGradient id="sw-head-emerald" href="#sw-head-axis"><stop offset="0" stop-color="#00D9B3"/><stop offset="1" stop-color="#19B899"/></linearGradient>
<linearGradient id="sw-head-violet" href="#sw-head-axis"><stop offset="0" stop-color="#8463D6"/><stop offset="1" stop-color="#673FCC"/></linearGradient>
<linearGradient id="sw-head-mint" href="#sw-head-axis"><stop offset="0" stop-color="#75E598"/><stop offset="1" stop-color="#3CCC6C"/></linearGradient>
</defs>
<g id="sw-ring">
<use href="#sw-seam" fill="url(#sw-gradient-aqua)"/>
<use href="#sw-seam" transform="rotate(72 374.5 383)" fill="url(#sw-gradient-blue)"/>
<use href="#sw-seam" transform="rotate(144 374.5 383)" fill="url(#sw-gradient-emerald)"/>
<use href="#sw-seam" transform="rotate(216 374.5 383)" fill="url(#sw-gradient-violet)"/>
<use href="#sw-seam" transform="rotate(288 374.5 383)" fill="url(#sw-gradient-mint)"/>
<use href="#sw-seam" fill="url(#sw-gradient-aqua)"/>
<use href="#sw-seam" transform="rotate(72 374.5 383)" fill="url(#sw-gradient-blue)"/>
<use href="#sw-seam" transform="rotate(144 374.5 383)" fill="url(#sw-gradient-emerald)"/>
<use href="#sw-seam" transform="rotate(216 374.5 383)" fill="url(#sw-gradient-violet)"/>
<use href="#sw-seam" transform="rotate(288 374.5 383)" fill="url(#sw-gradient-mint)"/>
<use href="#sw-seam" fill="url(#sw-gradient-aqua)"/>
<use href="#sw-seam" transform="rotate(72 374.5 383)" fill="url(#sw-gradient-blue)"/>
<use href="#sw-seam" transform="rotate(144 374.5 383)" fill="url(#sw-gradient-emerald)"/>
<use href="#sw-seam" transform="rotate(216 374.5 383)" fill="url(#sw-gradient-violet)"/>
<use href="#sw-seam" transform="rotate(288 374.5 383)" fill="url(#sw-gradient-mint)"/>
<use href="#sw-ribbon" fill="url(#sw-gradient-aqua)"/>
<use href="#sw-ribbon" transform="rotate(72 374.5 383)" fill="url(#sw-gradient-blue)"/>
<use href="#sw-ribbon" transform="rotate(144 374.5 383)" fill="url(#sw-gradient-emerald)"/>
<use href="#sw-ribbon" transform="rotate(216 374.5 383)" fill="url(#sw-gradient-violet)"/>
<use href="#sw-ribbon" transform="rotate(288 374.5 383)" fill="url(#sw-gradient-mint)"/>
</g>
<g id="sw-heads">
<use href="#sw-head" fill="url(#sw-head-aqua)"/>
<use href="#sw-head" transform="rotate(72 374.5 383)" fill="url(#sw-head-blue)"/>
<use href="#sw-head" transform="rotate(144 374.5 383)" fill="url(#sw-head-emerald)"/>
<use href="#sw-head" transform="rotate(216 374.5 383)" fill="url(#sw-head-violet)"/>
<use href="#sw-head" transform="rotate(288 374.5 383)" fill="url(#sw-head-mint)"/>
</g>
</g>
</svg>
